<svg id="Layer_1" xmlns="http://www.w3.org/2000/svg" viewBox="0 0 102.88 103.68"><defs><style>.cls-3{fill:#fff}.cls-6{opacity:.5}</style></defs><path d="M95.73 58.11C68.36 36.66 38.52 37.53 6 52.69c0 0 32.89 44.17 89.73 5.42z" fill-rule="evenodd" fill="#eaedef"/><path d="M50.5 74.96c-7.31.01-14.55-1.4-21.32-4.14C13.8 64.59 5.56 53.72 5.22 53.26a.948.948 0 0 1 .2-1.34c.05-.04.11-.07.16-.1 35.31-16.46 64.99-14.65 90.72 5.53.42.32.5.92.18 1.34a.93.93 0 0 1-.23.21C84.48 66.94 68.26 74.96 50.5 74.96zM7.51 53.04a59.903 59.903 0 0 0 22.47 16.02c19.41 7.81 41.55 4 64.09-11.02-12.87-9.81-26.4-14.86-41.31-15.42-13.95-.54-28.75 2.88-45.25 10.41z"/><circle cx="49.52" cy="56.5" r="19.88" fill="#9e725a"/><path d="M49.51 77.35c-11.51 0-20.84-9.33-20.84-20.84S38 35.67 49.51 35.67 70.35 45 70.35 56.51c-.01 11.51-9.34 20.83-20.84 20.84zm0-39.74c-10.45 0-18.92 8.47-18.92 18.92s8.47 18.92 18.92 18.92 18.92-8.47 18.92-18.92c0-10.45-8.47-18.93-18.92-18.95v.03z"/><g class="cls-6"><path class="cls-3" d="M62.08 49.61c-.48 0-.94-.24-1.2-.64-.39-.59-.81-1.14-1.28-1.67a1.44 1.44 0 0 1 1.88-2.18c.09.08.17.16.23.26.58.63 1.11 1.3 1.58 2.02.44.66.26 1.56-.4 2-.25.15-.53.22-.82.21z"/></g><g class="cls-6"><path class="cls-3" d="M64.45 60.09h-.21c-.79-.11-1.33-.84-1.22-1.63.09-.64.14-1.28.14-1.92 0-1.03-.12-2.05-.35-3.05-.13-.79.4-1.53 1.18-1.66.72-.12 1.42.32 1.63 1.02.28 1.21.42 2.45.42 3.7 0 .78-.05 1.57-.17 2.35-.12.69-.72 1.2-1.42 1.2z"/></g><circle cx="49.52" cy="56.5" r="9.92" fill="#333"/><path d="M49.51 67.39c-6.02 0-10.9-4.88-10.9-10.9s4.88-10.9 10.9-10.9 10.9 4.88 10.9 10.9-4.88 10.9-10.9 10.9zm0-19.87c-4.96 0-8.97 4.02-8.97 8.97s4.02 8.97 8.97 8.97 8.97-4.02 8.97-8.97c-.01-4.95-4.03-8.95-8.97-8.95v-.03z"/><path d="M97.22 58.26c-26.84-32.69-63.04-34.46-96.1-8.2 0 2.36 39.19 53.51 96.1 8.2zm-1.49-.15C68.36 36.66 38.52 37.53 6 52.69c0 0 32.89 44.17 89.73 5.42z" fill="#eba38f" fill-rule="evenodd"/><path d="M50.6 77.89c-8.84-.03-17.56-2.1-25.48-6.05C9.78 64.36.16 51.97.16 50.05c0-.29.14-.57.37-.74C17.12 36.13 34.77 29.83 51.58 31.1c17.16 1.29 33.19 10.47 46.39 26.55.17.2.24.45.22.71a.97.97 0 0 1-.36.64C85.86 68.54 69.34 77.89 50.6 77.89zM2.28 50.38c1.76 3.24 13.61 17.3 31.92 23.03 16.29 5.13 33.1 2.63 50.11-7.37-15.44 7.9-35.04 12.91-55.12 4.79C13.81 64.6 5.57 53.73 5.23 53.27a.948.948 0 0 1 .2-1.34c.05-.04.11-.07.16-.1 33.8-15.75 62.45-14.77 87.42 3.06-25.42-27.64-58.96-29.43-90.73-4.51zm5.24 2.67a59.903 59.903 0 0 0 22.47 16.02c19.41 7.81 41.55 4 64.09-11.02-12.87-9.81-26.4-14.86-41.31-15.42-13.95-.54-28.75 2.88-45.25 10.41z"/><path d="M90.97 57.26a7.168 7.168 0 0 0-.88-3.2c1.89 1.28 3.77 2.64 5.64 4.08-2.24 1.53-4.49 2.93-6.62 4.21a7.085 7.085 0 0 0 1.86-5.06v-.03z" fill-rule="evenodd" fill="#e26470"/><path d="M89.11 63.28a.96.96 0 0 1-.7-1.62 6.118 6.118 0 0 0 1.6-4.36c-.03-.98-.29-1.94-.76-2.81a.962.962 0 0 1 .34-1.32.96.96 0 0 1 1.03.03 84.76 84.76 0 0 1 5.7 4.13c.42.32.5.92.18 1.34a.93.93 0 0 1-.23.21 133.68 133.68 0 0 1-6.67 4.24.94.94 0 0 1-.49.15zm2.81-6.06c.03.81-.06 1.62-.27 2.41.81-.51 1.62-1.04 2.44-1.58-.74-.56-1.49-1.11-2.23-1.65.04.27.06.55.06.82zM10.71 51.23c-1.21-.06-2.4-.36-3.49-.87-.63-.24-1.24-.55-1.82-.91-1.08-.79-2.01-1.76-2.76-2.86a.963.963 0 1 1 1.52-1.16c.63.93 1.4 1.74 2.29 2.42.48.29.98.54 1.5.74 1.06.44 2.28.89 3.37.64.52-.11 1.03.23 1.13.75s-.23 1.03-.75 1.13c-.32.07-.65.11-.99.12zM16.41 49.09a9.107 9.107 0 0 1-5.28-1.89 23.064 23.064 0 0 1-3.81-3.71.977.977 0 0 1 .08-1.37.977.977 0 0 1 1.37.08c1.03 1.29 2.2 2.45 3.49 3.47a7.35 7.35 0 0 0 4.15 1.53.96.96 0 0 1 0 1.92v-.03zM21.26 47.29h-.16c-1.75-.29-3.04-1.42-4.18-2.42l-.42-.37-1.08-.94c-.99-.86-2.01-1.75-3.05-2.56a.957.957 0 0 1-.16-1.35c.32-.42.92-.49 1.34-.16 1.08.85 2.12 1.75 3.13 2.63l1.07.93.43.38c1.04.91 2.02 1.77 3.2 1.97.53.04.93.51.88 1.04-.04.53-.51.93-1.04.88l.02-.03zM26.22 45.55c-.11 0-.22-.02-.32-.06-2.44-.87-4.51-2.55-5.87-4.76a.95.95 0 0 1 .32-1.32.95.95 0 0 1 1.32.32 9.505 9.505 0 0 0 4.86 3.95c.5.17.77.72.6 1.22-.13.39-.51.66-.92.65h.01zM32.28 44.03c-.13 0-.25-.02-.37-.07-2.22-.92-3.77-2.49-5.27-4.02-.36-.36-.71-.72-1.08-1.08a.973.973 0 0 1-.07-1.36c.36-.39.96-.42 1.36-.07l.04.04c.38.37.75.74 1.12 1.11 1.43 1.45 2.78 2.82 4.65 3.6a.958.958 0 0 1-.37 1.84zM38.12 43.41c-.22 0-.44-.07-.61-.21l-1.8-1.47c-1.4-1.15-2.54-2.58-3.36-4.2a.965.965 0 0 1 .5-1.27h.02c.49-.22 1.05 0 1.27.49 0 .01 0 .02.01.03.7 1.32 1.65 2.49 2.8 3.45l1.8 1.47c.41.34.47.94.13 1.35-.18.24-.47.38-.77.38zM45.49 42.73c-.2 0-.4-.06-.56-.19a53.244 53.244 0 0 1-5.62-4.77.964.964 0 0 1 1.3-1.42c.02.01.03.03.04.04 1.7 1.66 3.51 3.19 5.42 4.6.43.31.52.92.21 1.34-.18.25-.47.39-.78.39zM54.71 42.73c-.12 0-.24-.02-.35-.06-3.2-1.28-5.91-3.42-8.49-5.5a.966.966 0 0 1-.15-1.35c.33-.41.94-.48 1.35-.15 2.47 2 5.03 4.06 7.98 5.2.5.19.74.75.55 1.24-.14.37-.5.62-.9.62zM62.07 43.41c-.19 0-.37-.05-.53-.15a66.893 66.893 0 0 1-6.86-5.13.968.968 0 0 1 .18-1.35c.3-.23.71-.26 1.05-.08 2.11 1.79 4.34 3.45 6.67 4.96a.961.961 0 1 1-.53 1.76v-.02zM6.1 58.73c-1.07 0-2.14-.08-3.2-.22a.973.973 0 0 1-.81-1.09c.07-.52.54-.89 1.06-.82h.02c2.16.31 4.35.28 6.49-.1a.973.973 0 1 1 .32 1.92c-1.29.21-2.59.31-3.89.3zM12.4 62.41c-2.09 0-4.17-.24-6.21-.71a.967.967 0 0 1-.68-1.18c.13-.49.62-.79 1.11-.69 2.52.59 5.11.79 7.69.6.53-.04.99.36 1.04.89.04.53-.36.99-.89 1.04-.7.04-1.38.06-2.06.06zM17.55 65.23h-4.67a.96.96 0 0 1 0-1.92h4.67a.96.96 0 0 1 0 1.92zM17.11 68.37a.966.966 0 0 1-.2-1.92l4.55-1c.52-.1 1.03.24 1.13.76.1.5-.22.99-.72 1.12l-4.55 1c-.07.02-.14.04-.21.04z"/><circle cx="39.62" cy="60.76" r="5.5" fill="#eaedef"/><path d="M39.62 67.22c-3.57 0-6.46-2.89-6.46-6.46s2.89-6.46 6.46-6.46 6.46 2.89 6.46 6.46-2.89 6.46-6.46 6.46zm0-11c-2.51 0-4.54 2.03-4.54 4.54s2.03 4.54 4.54 4.54 4.54-2.03 4.54-4.54c0-2.5-2.03-4.53-4.54-4.54z"/></svg>