<svg id="Layer_2" xmlns="http://www.w3.org/2000/svg" viewBox="0 0 135.93 92.99"><defs><style>.cls-1{fill:#fff}.cls-2{opacity:.5}</style></defs><path d="M44.54 34.99c5.22-18.95 31.86-17.96 40.85-8.65a13.55 13.55 0 0 1 3.96 8.45c-12.28-10.75-35.33-9.07-44.82.2h.01z" fill="#f3848a" fill-rule="evenodd"/><path d="M44.54 35.87c-.5 0-.91-.41-.91-.91 0-.08.01-.17.03-.25 2.07-7.5 7.67-12.77 15.81-14.85 9.59-2.43 21.02.04 26.6 5.81 2.44 2.4 3.95 5.59 4.26 9a.912.912 0 0 1-1.58.79c-12.09-10.6-34.44-8.71-43.57.17-.17.16-.4.24-.63.24zm22.62-9.41c7.44 0 15.03 1.88 20.88 6.08-.62-2.11-1.75-4.04-3.31-5.6-5.07-5.24-15.98-7.58-24.84-5.31-6.29 1.61-10.94 5.29-13.38 10.51 5.26-3.61 12.87-5.68 20.65-5.68z"/><path d="M72.16 27.66c1.6-2.27 3.59-4.22 5.89-5.77l.19-.11.08-.04.09-.05.13-.06h.04l.13-.06.2-.09.17-.07h.04l.14-.05h.04l.22-.08h.3l.12-.04h.3l.13-.04h.12l.13-.04h.12l.16-.05.13-.04.13-.04.27-.08.14-.04h.15l.15-.04.15-.04.15-.04.15-.04.15-.04.14-.03.15-.04.13-.04.16-.04h.16l.22-.05h.1l.16-.04h.16l.24-.05h.26l.13-.03.16-.04h.22l.24-.05h.05l.33-.07h.17l.17-.03.32-.06.35-.07h.14l.17-.03c3.77-.68 7.55-1.08 9.08-.88 2.93.38 1.22-5.25-2.04-5.9-3.5-.66-7.07-.79-10.6-.4l-.32.03h-.05l-.27.04h-.8l-.24.04h-.11l-.26.04h-.58l-.18.04h-.47l-.15.03-.17.04-.15.04-.18.04-.16.04h-.27l-.15.04h-.04l-.21.05h-.04l-.15.04-.12.03-.15.04-.19.05h-.09l-.23.06-.14.04-.22.06h-.1l-.22.07h-.05l-.24.07-.14.05-.13.04-.13.04h-.06l-.18.06h-.13l-.14.05h-.04l-.13.05-.13.05-.13.05-.2.08h-.27l-.11.04h-.16c-.64.26-1.26.53-1.86.83-2.38-.79-4.82-1.4-7.3-1.82a9.119 9.119 0 0 0-3.61 6.88c.74.17 1.47.39 2.19.66a18.19 18.19 0 0 0-3.34 3.56c-.93 1.26-1.79 2.58-2.57 3.93a42.33 42.33 0 0 1 14.15-.68zm-18.47-15.5c-5.51-.09-10.56.5-13.55 1.96-3.42 1.69-.37 5.41.97 6.17 1.12.65 5.47-.25 9.32-.61.86-2.6 1.95-5.12 3.26-7.52z" fill="#98b5d5" fill-rule="evenodd"/><path d="M58.01 29.25a.905.905 0 0 1-.78-1.37c.8-1.39 1.67-2.73 2.62-4.02.68-.94 1.44-1.83 2.27-2.63l-.61-.15a.909.909 0 0 1-.7-.95c.13-2.99 1.6-5.77 4-7.56.2-.14.44-.19.68-.15 2.38.41 4.74.99 7.04 1.74.51-.24 1.05-.47 1.59-.69h.14l.09-.04h.05l.08-.03.83-.3h.06l.26-.09h.07l.67-.21h.06l1.96-.53h.06l1.46-.31h.07l.24-.05h.07l.38-.07h.06l2.13-.3h.07l.32-.03c3.65-.49 7.35-.43 10.97.18 2.66.54 4.58 3.76 4.26 5.92a2.054 2.054 0 0 1-2.27 1.81c-.07 0-.14-.02-.21-.03-1.36-.17-4.97.19-8.8.88l-2.13.4-.26-.88.19.88-.49.11-.29-.87.19.89-.55.13-.3-.86.21.89-2.72.72h-.06l-.35-.85.29.87-.15.05h-.09l-.15.05h-.07l-.33-.85.27.95-.11.04h-.09l-.13.05-.37-.83.31.86-.21.07h-.07l-.15.06h-.09l-.82.38-.15.09c-2.2 1.48-4.12 3.35-5.64 5.53-.2.26-.52.39-.84.35-4.62-.55-9.3-.33-13.84.67-.06.04-.13.08-.2.11zm4.72-9.73c.51.15 1.02.3 1.51.49.32.1.55.37.61.7.05.32-.07.65-.32.86-1.22.97-2.3 2.1-3.21 3.36-.5.68-.98 1.37-1.45 2.1 3.93-.66 7.92-.78 11.88-.35 1.6-2.19 3.57-4.07 5.82-5.57l.23-.13.18-.1.06-.03.13-.07.08-.04.57-.24.09-.04.14-.05h.07l.25-.09.08-.03h.18l.35.84-.29-.86.12-.04h.12l.15-.05h.07l.08-.12.12-.04h.16l2.84-.75h.1l.57-.13h.1l.5-.11h.06l.43-.19h.06l1.7-.33c3.13-.57 7.46-1.14 9.36-.89.4.05.42-.05.45-.27.18-1.05-1.01-3.48-2.78-3.84-3.41-.64-6.89-.77-10.34-.39l-4.59.77-2.6.68h-.07l-.16.05h-.07l-.34-.85.29.86-.79.29h-.13l-.1.04h-.06c-.61.25-1.22.52-1.82.8a.92.92 0 0 1-.71.05c-2.21-.74-4.46-1.31-6.75-1.72a8.017 8.017 0 0 0-2.92 5.39v.02zm-20.19 1.91a3.84 3.84 0 0 1-1.86-.35c-1.04-.61-3.04-2.72-2.99-4.86.06-1.29.87-2.43 2.08-2.89 2.91-1.42 7.87-2.15 13.98-2.04a.913.913 0 0 1 .78 1.37c-1.28 2.35-2.34 4.8-3.19 7.34-.12.34-.42.57-.78.61-1.12.1-2.29.26-3.41.41-1.53.23-3.07.38-4.61.44zm9.64-8.36c-5.11.03-9.21.68-11.63 1.87-.92.45-1.05.97-1.05 1.32-.04 1.22 1.34 2.82 2.07 3.25.55.3 3.3-.07 5.3-.33.95-.12 1.93-.25 2.89-.35.68-1.97 1.49-3.89 2.41-5.75z"/><path d="M74.47 14.31l.36-.14h.06l.21-.08.13-.05.13-.05.13-.05.54-.18.13-.04.13-.04.14-.05.26-.08.22-.07h.1l.22-.06.14-.04.24-.07h.09l.22-.06.15-.04.12-.03.15-.04h.04l.21-.05h.04l.15-.04.13-.03h.15l.16-.04.18-.04.16-.04.17-.04.16-.03h.47l.2-.04h.6l.26-.04h.12l.24-.04h.81l.27-.04h.05l.32-.03h.15c-.7-.96-1.51-1.83-2.4-2.62l2.1-3.43c.13-.23.06-.52-.17-.66-.02-.01-.05-.03-.07-.04l-4.79-2.78a.654.654 0 0 0-.8.21l-1.82 2.94a20.5 20.5 0 0 0-3.86-.86V1.43a.56.56 0 0 0-.6-.52h-5.61c-.31-.03-.58.2-.61.51v4.05c-1.51.21-2.99.6-4.4 1.18l-2.01-3.3a.63.63 0 0 0-.8-.21l-4.97 2.29c-.25.09-.37.37-.28.62 0 .03.02.05.04.07l2.6 4.26c-2.43 2.64-6.56 13.68-5.87 16.42 3.33-3.54 7.86-5.6 12.66-6.44.43-6.83 6.88-11.05 12.77-6.03h-.01zm3.96 7.62c.4.16.8.32 1.22.5l.13.06.47.22.21.1.38.19.26.14.33.18.29.16.25.15.36.22.18.12.4.27.13.09.43.3.08.06c.15.11.3.22.44.34l.05.04.44.37v.07c.15.13.3.26.44.39l.43.42.11.12.1.1v.04l.05.05.04.05.05.06.04.05.09.1.05.06.05.06.04.05.05.05.04.05.24.17.04.05.05.06.05.05.05.06c.64.8 1.19 1.67 1.64 2.58.22-3.64-.15-7.28-1.11-10.8l-.17.03h-.14l-.35.07-.32.06-.17.03h-.17l-.33.07h-.05l-.24.05-.17.04h-.06l-.16.04-.21.13h-.26l-.24.05h-.16l-.16.04h-.1l-.22.05h-.16l-.16.04-.13.04-.15.04-.16.04-.15.04-.15.04-.15.04-.15.04-.15.04-.13.04-.14.04-.27.08-.13.04-.13.04-.52.16-.72.25-.22.08c-.38.14-.76.31-1.12.5l-.08.04-.07.04.27.1-.13.17z" fill-rule="evenodd" fill="#e26470"/><path d="M88.14 31.09c-.35 0-.67-.2-.82-.52-.42-.86-.93-1.68-1.52-2.43l-.56-.67-.2-.22.61-.67-.66.61-.22-.23c-.12-.13-.26-.26-.4-.39s-.28-.26-.42-.38l-.45-.38-.05-.05-.41-.32-.08-.06-.4-.28-.13-.09-.37-.25-.18-.11-.34-.21-1.09-.61-.37-.19-.2-.1-.44-.21-.15-.07c-.37-.16-.75-.33-1.14-.48l.24-.61-.25.61-.26-.1a.907.907 0 0 1-.61-.78c-.02-.35.16-.69.47-.86l.16-.09c.39-.21.8-.39 1.22-.55l.24-.09c.25-.09.5-.18.77-.26l.55-.17 2.65-.69h.1l.57-.13h.1l.5-.11h.06l.44-.09h.06l1.7-.33c.46-.08.91.2 1.04.65.98 3.62 1.37 7.37 1.14 11.11-.03.41-.33.75-.74.83-.05 0-.11-.01-.16-.02zm-7.62-9.24l.13.06.21.1.4.21 1.19.66.38.24.18.12.43.28.14.09.44.32.09.06c.16.12.31.24.46.36l.06.05.46.38c.19.17.35.31.5.46s.32.31.47.46l.24.24.06.07.86 1 .05.06c-.07-2.24-.38-4.47-.91-6.65l-1.82.38-.29-.87.19.89-.55.13-.32-.89.21.89-2.55.67-.5.15-.19.08zm-31.46 5.84c-.42 0-.78-.28-.89-.69-.74-2.92 3.04-13.19 5.64-16.71l-2.26-3.7c-.21-.34-.26-.75-.15-1.12.13-.39.41-.72.79-.89l4.99-2.27c.7-.33 1.54-.09 1.96.57l1.63 2.63c1-.36 2.03-.64 3.08-.83V1.43c.02-.81.7-1.45 1.51-1.43H71c.81-.02 1.48.62 1.51 1.43v3.21c.86.14 1.71.33 2.54.57l1.43-2.33c.42-.65 1.26-.89 1.96-.57l4.99 2.28c.37.17.66.49.79.88.11.37.06.78-.15 1.11l-1.71 2.8c.72.69 1.37 1.44 1.96 2.24a.907.907 0 0 1-.61 1.45l-4.75.79-2.61.74-.52.18-1.02.38c-.32.12-.67.06-.93-.16-2.26-1.93-4.72-2.48-6.93-1.54-2.47 1.05-4.13 3.7-4.33 6.94-.03.42-.34.77-.75.84-4.99.88-9.19 3.04-12.16 6.18-.17.18-.41.29-.66.29zm4.3-21.61l2.34 3.83c.21.35.17.79-.1 1.09-1.9 2.08-4.86 9.69-5.57 13.61 3.13-2.57 6.86-4.3 10.84-5.04.44-3.61 2.43-6.55 5.37-7.79 2.69-1.14 5.72-.61 8.39 1.49l.61-.21.56-.19 4.52-1.15.45-.08h.06l1.02-.16c-.38-.43-.79-.83-1.22-1.22a.916.916 0 0 1-.18-1.16l1.82-3.01-4.4-2.04-1.65 2.7c-.22.36-.66.52-1.06.39-1.2-.39-2.44-.67-3.69-.83a.917.917 0 0 1-.8-.91V1.82h-5.01v3.65c0 .45-.33.84-.78.91-1.43.2-2.84.57-4.18 1.11-.41.17-.89.01-1.12-.36l-1.82-3.04-4.4 1.99zm-.26-.43zm4.49-1.82z"/><g class="cls-2"><path class="cls-1" d="M56.36 18.37c-.19 0-.37-.04-.55-.11-.7-.3-1.01-1.11-.71-1.81v-.02c.54-1.4 1.27-2.72 2.17-3.92.54-.53 1.41-.51 1.93.03.48.49.52 1.26.1 1.8-.69.99-1.26 2.06-1.7 3.19-.21.51-.7.84-1.25.84z"/></g><path d="M41.12 39.97C36.67 51.3 43.84 57.44 48 64.36c7.61 12.62 2.86 8.15 6.69 18.81 3.56 9.82 13.93 15.2 28.43-3.87C93.99 65.08 99.68 52.69 95.2 42.66c-9.58-21.54-47.9-18.4-54.08-2.7z" fill="#ab323c" fill-rule="evenodd"/><path d="M65.21 92.99c-.52 0-1.04-.04-1.55-.12-4.26-.66-7.85-4.07-9.78-9.39-1.59-4.39-1.76-6.31-1.9-7.84-.18-2.07-.3-3.44-4.75-10.81-.77-1.28-1.64-2.52-2.55-3.83-3.84-5.47-8.2-11.73-4.41-21.37 3-7.61 13.39-12.88 25.87-13.18 10.94-.24 24.54 3.8 29.89 15.84 4.13 9.3.28 21.24-12.16 37.56-8.02 10.56-14.38 13.13-18.67 13.13zM41.97 40.31c-3.44 8.73.28 14.04 4.21 19.66.89 1.28 1.82 2.6 2.62 3.93 4.66 7.73 4.8 9.27 5 11.59.13 1.43.29 3.22 1.79 7.38 1.69 4.66 4.73 7.65 8.34 8.21 3.74.57 9.98-1.11 18.51-12.32 11.98-15.74 15.77-27.07 11.93-35.71-4.99-11.23-17.85-14.98-28.19-14.76-11.56.25-21.52 5.2-24.21 12.03z"/><g class="cls-2"><path class="cls-1" d="M78.67 35.22c-.16 0-.31-.03-.46-.08-.95-.34-1.91-.63-2.89-.87a1.37 1.37 0 0 1-.91-1.71c.2-.67.88-1.08 1.57-.94 1.08.27 2.15.61 3.16.95.71.25 1.08 1.04.83 1.75-.19.55-.71.91-1.29.91z"/></g><g class="cls-2"><path class="cls-1" d="M88.8 42.16c-.42 0-.82-.19-1.08-.52a18.348 18.348 0 0 0-4.67-4.16 1.364 1.364 0 1 1 1.44-2.32s.01 0 .02.01c2.05 1.28 3.86 2.9 5.36 4.79a1.354 1.354 0 0 1-1.07 2.2z"/></g><path d="M74.42 73.23c-.27 0-.52-.12-.69-.32l-5.26-6.13c-.99-1.05-1.82-2.23-2.49-3.5-1.13-2.43-1.02-5.03-.91-7.58.07-1.19.07-2.39 0-3.58-.19-2.61-1.07-5.08-2-7.7-.49-1.37-1-2.79-1.39-4.26-1.01-3.73-1-9.16 2.13-13.09.31-.4.89-.46 1.28-.15s.46.89.15 1.28c-2.22 2.81-2.91 7.3-1.77 11.5.38 1.37.88 2.77 1.35 4.11.94 2.61 1.9 5.31 2.1 8.18.07 1.26.07 2.53 0 3.79-.1 2.43-.21 4.72.74 6.72.6 1.12 1.34 2.16 2.21 3.09l5.22 6.14c.33.38.29.96-.09 1.29-.17.14-.38.22-.6.22v-.02z"/><path d="M55.44 47.46c-.5 0-.91-.41-.91-.91 0-.14.03-.28.1-.41a66.13 66.13 0 0 1 4.32-7.65c.18-.27.38-.54.57-.81.58-.79 1.11-1.61 1.57-2.47.25-.44.8-.59 1.24-.35.41.23.58.73.39 1.16-.5.95-1.07 1.85-1.71 2.71-.19.26-.37.52-.55.79a63.68 63.68 0 0 0-4.16 7.44c-.16.32-.49.51-.85.5z"/><path d="M58.74 48.53c-.5 0-.91-.42-.9-.92l.12-7.42c0-.5.42-.89.91-.89.5 0 .9.42.89.92l-.12 7.42c0 .5-.41.89-.91.89zM74.91 47.92c-.26 0-.5-.11-.67-.3a20.487 20.487 0 0 0-4.2-3.85 9.718 9.718 0 0 0-6.47-1.32c-.5.08-.97-.27-1.05-.78-.08-.5.27-.97.78-1.05 2.67-.39 5.4.16 7.7 1.57 1.72 1.17 3.27 2.58 4.59 4.19.34.37.31.94-.06 1.28h-.01c-.16.16-.38.24-.61.24zM56.13 62.47a.913.913 0 0 1-.55-1.64c2.06-1.54 3.89-3.36 5.42-5.42.22-.29.44-.61.65-.9.92-1.46 2.1-2.74 3.49-3.76.43-.28 1-.16 1.27.27.28.43.16 1-.27 1.27-1.22.8-2.08 2.02-3.04 3.31-.22.31-.44.61-.67.93-1.64 2.2-3.59 4.15-5.79 5.79-.15.1-.33.15-.51.15z"/><path d="M58.87 59.34c-1.26 0-2.52-.1-3.77-.31a.919.919 0 0 1-.76-1.06c.08-.5.56-.85 1.06-.76 1.42.24 2.86.33 4.3.27a.916.916 0 0 1 .07 1.83l-.9.04zM64.62 67.11c-.14 0-.28-.03-.4-.09a.912.912 0 0 1-.41-1.22c1.12-2.29 1.54-4.01 1.34-5.6-.06-.5.3-.96.8-1.02.5-.06.96.3 1.02.8.32 2.54-.71 5-1.51 6.63-.16.31-.49.51-.84.5zM76.41 60.25c-1.77-.09-3.49-.58-5.05-1.43-1.95-.94-3.83-2.03-5.61-3.27a.907.907 0 0 1-.27-1.26c.27-.42.84-.55 1.26-.27.02.01.03.02.05.03 1.7 1.17 3.5 2.21 5.36 3.1 1.31.71 2.77 1.13 4.26 1.22.5 0 .91.41.91.91s-.41.91-.91.91v.05z"/><path d="M71.55 63.88c-.39 0-.74-.24-.87-.61-.61-1.85-.87-3.79-.79-5.74.02-.5.45-.89.95-.87.5.02.89.45.87.95-.08 1.72.15 3.44.69 5.08.15.48-.12 1-.61 1.15-.08.03-.16.04-.24.04z"/></svg>