<svg id="Layer_3" xmlns="http://www.w3.org/2000/svg" viewBox="0 0 135.93 103.68"><defs><style>.cls-1{fill:#f09662}.cls-2{fill:#fff}.cls-3{opacity:.5}.cls-4{fill:#ecb6ac;fill-rule:evenodd}</style></defs><path d="M64.16 3.2c.22 6.56.98 31.43-.22 32.98-.68.83-2.85 2.42-5.03 3.89.12 2.33.38 5.1.68 8.19 1.95-1.78 4-3.43 6.16-4.94 1.84-1.2 2.8-1.26 4.66-.07 2.2 1.53 4.29 3.21 6.26 5.02.31-3.09.58-5.86.68-8.19-2.18-1.47-4.39-3.06-5.03-3.89-1.2-1.54-.45-26.25-.23-32.91.15-3.04-8-2.98-7.92-.07z" fill="#ffd2a3" fill-rule="evenodd"/><path d="M59.61 49.28c-.52 0-.95-.4-1.01-.92-.28-2.83-.58-5.81-.68-8.24-.02-.35.15-.69.45-.89 3.5-2.37 4.48-3.3 4.75-3.63.62-1.59.68-14.55.05-32.37 0-1.02.56-1.95 1.47-2.42a7.89 7.89 0 0 1 6.98 0c.94.48 1.52 1.44 1.51 2.5-.6 17.78-.58 30.71.05 32.3.27.33 1.25 1.26 4.75 3.63.31.19.49.53.47.89-.12 2.43-.41 5.42-.68 8.24-.04.39-.31.72-.68.84-.35.14-.76.07-1.04-.18a58.02 58.02 0 0 0-6.14-4.92c-1.48-.95-2.03-.94-3.55.06a61.212 61.212 0 0 0-6.03 4.85c-.18.16-.41.25-.66.26zm.35-8.69c.1 1.71.27 3.65.47 5.61 1.51-1.34 3.09-2.59 4.75-3.74 2.21-1.44 3.61-1.45 5.76-.07 1.72 1.16 3.36 2.44 4.91 3.81.19-1.96.37-3.91.46-5.61-3.93-2.68-4.57-3.51-4.79-3.78-.37-.48-1.5-1.94-.44-33.57 0-.1 0-.37-.51-.68a5.972 5.972 0 0 0-4.93 0c-.49.28-.48.53-.48.6 1.06 31.7-.07 33.15-.44 33.64-.18.28-.83 1.11-4.75 3.79z"/><path class="cls-4" d="M27.9 40.96c-10.64 15.53-11.1 35.2-9.49 53.48.86 9.85 8.81 9.16 20.57 6.57s20.75-7.26 21.95-22.13-1.91-31.64-2.07-40.28c-.68-34.14-18.98-15.07-30.96 2.36z"/><path d="M27.61 103.68c-2.79 0-5-.53-6.73-1.79-2.03-1.5-3.18-3.91-3.48-7.36-1.44-16.53-1.66-37.58 9.67-54.14C41.5 19.37 49.34 17.89 52.73 18.9c4.57 1.36 6.91 7.8 7.15 19.66.05 2.88.45 6.68.89 11.08.89 8.63 1.99 19.37 1.17 29.3-1.31 16.13-11.71 20.6-22.75 23.05-4.66 1.06-8.49 1.69-11.59 1.69zm23.33-83.01c-4.98 0-13.11 7.61-22.2 20.86C17.78 57.52 18 78.16 19.4 94.35c.25 2.84 1.12 4.75 2.66 5.91 3 2.2 8.6 1.54 16.68-.24 11.87-2.62 20.02-7.23 21.16-21.21.79-9.75-.3-20.39-1.17-28.93-.44-4.45-.83-8.29-.89-11.23-.21-10.58-2.18-16.73-5.7-17.78-.39-.12-.8-.18-1.21-.19zM27.89 40.96z"/><path class="cls-4" d="M108.39 40.96c10.65 15.53 11.1 35.2 9.49 53.48-.87 9.85-8.81 9.16-20.57 6.57s-20.75-7.26-21.96-22.13c-1.21-14.87 1.91-31.64 2.07-40.28.68-34.14 18.98-15.07 30.96 2.36z"/><path d="M108.69 103.68c-3.11 0-6.94-.68-11.6-1.68-11.04-2.43-21.41-6.91-22.77-23.04-.81-9.93.29-20.67 1.17-29.3.45-4.4.84-8.2.9-11.08.24-11.88 2.57-18.31 7.14-19.66 3.39-1.02 11.23.43 25.67 21.49 11.33 16.53 11.12 37.62 9.67 54.14-.31 3.46-1.44 5.86-3.48 7.36-1.69 1.24-3.91 1.77-6.7 1.77zM85.35 20.67c-.41 0-.81.06-1.21.17-3.51 1.05-5.48 7.2-5.7 17.8-.05 2.96-.45 6.78-.9 11.25-.88 8.54-1.97 19.18-1.17 28.93 1.14 13.99 9.28 18.6 21.16 21.21 8.07 1.78 13.68 2.44 16.68.24 1.54-1.13 2.41-3.06 2.66-5.91 1.42-16.19 1.65-36.82-9.32-52.82-9.08-13.28-17.22-20.88-22.2-20.88z"/><g class="cls-3"><path class="cls-2" d="M93.09 31.55c-.4 0-.79-.16-1.07-.45-.85-.84-1.66-1.59-2.43-2.24-.67-.5-.81-1.46-.31-2.14.5-.67 1.46-.81 2.14-.31.05.03.09.07.13.11.83.68 1.72 1.51 2.62 2.41a1.53 1.53 0 0 1-1.08 2.61z"/></g><g class="cls-3"><path class="cls-2" d="M104.2 45.36c-.51 0-.98-.26-1.26-.68-2.34-3.39-4.65-6.49-6.88-9.15-.54-.65-.46-1.61.19-2.15s1.61-.46 2.15.19c2.29 2.71 4.66 5.89 7.06 9.38.47.69.3 1.64-.39 2.12-.25.18-.55.28-.86.28z"/></g><rect class="cls-1" x="62.96" y="29.59" width="10.38" height="4.98" rx="1.51" ry="1.51"/><path d="M71.83 35.59h-7.37c-1.39 0-2.52-1.13-2.52-2.53v-1.97c0-1.39 1.13-2.52 2.52-2.52h7.37c1.38.02 2.49 1.14 2.5 2.52v1.97c0 1.38-1.11 2.51-2.5 2.53zm-7.37-4.98a.49.49 0 0 0-.49.49v1.97c0 .27.22.49.49.49h7.37c.27 0 .49-.22.49-.49V31.1a.49.49 0 0 0-.49-.49h-7.37z"/><rect class="cls-1" x="62.96" y="18.09" width="10.38" height="4.98" rx="1.51" ry="1.51"/><path d="M71.83 24.09h-7.37c-1.39 0-2.52-1.13-2.52-2.52V19.6a2.53 2.53 0 0 1 2.52-2.53h7.37a2.54 2.54 0 0 1 2.5 2.53v1.97c0 1.38-1.11 2.5-2.5 2.52zm-7.37-4.98a.49.49 0 0 0-.49.49v1.97c0 .27.22.49.49.49h7.37c.27 0 .49-.22.49-.49V19.6a.49.49 0 0 0-.49-.49h-7.37z"/><rect class="cls-1" x="62.96" y="6.59" width="10.38" height="4.98" rx="1.51" ry="1.51"/><path d="M71.83 12.59h-7.37c-1.39 0-2.52-1.13-2.52-2.52V8.13a2.53 2.53 0 0 1 2.52-2.53h7.37a2.54 2.54 0 0 1 2.5 2.53v1.97a2.534 2.534 0 0 1-2.5 2.5zm-7.37-4.98a.49.49 0 0 0-.49.49v1.97c0 .27.22.49.49.49h7.37c.27 0 .49-.22.49-.49V8.13a.49.49 0 0 0-.49-.49l-7.37-.03zM106.61 80.46c-.16 0-.32-.04-.47-.11-5.07-2.6-9.1-6.85-11.42-12.04-.82-1.95-1.52-3.96-2.09-6-.92-3.06-1.79-5.96-3.48-8.45-2.93-4.3-8.14-6.87-12.31-8.92-.48-.29-.64-.91-.35-1.4.25-.42.77-.6 1.23-.43 4.39 2.16 9.86 4.86 13.09 9.6 1.87 2.75 2.83 5.93 3.75 9.01.54 1.96 1.21 3.88 1.99 5.76 2.14 4.77 5.84 8.67 10.5 11.06.5.26.69.87.43 1.37-.17.33-.52.54-.89.55h.03z"/><path d="M96.44 70.19a1.018 1.018 0 0 1-.13-2.03c4.69-.66 9.44-.75 14.14-.27.56.06.97.56.92 1.12-.06.56-.56.97-1.12.92-4.55-.46-9.14-.38-13.66.26h-.14zM84 81.11h-.04c-.56-.02-1-.49-.98-1.05.25-3.68.17-7.37-.24-11.03-.09-.68-.22-1.36-.34-2.03-.28-1.4-.47-2.81-.56-4.24-.21-4.68 1.55-9.09 3.2-12.88.23-.51.83-.75 1.34-.52.51.23.75.83.52 1.34-1.57 3.56-3.22 7.72-3.03 11.96.09 1.33.26 2.66.53 3.97.13.68.25 1.4.35 2.11.43 3.78.52 7.6.26 11.4-.02.55-.47.98-1.02.98z"/><path d="M91.03 76.04c-.21 0-.42-.07-.6-.2l-7.1-5.19a1.016 1.016 0 0 1 1.14-1.68c.02.01.04.03.06.04l7.1 5.19a1.02 1.02 0 0 1-.6 1.84zM90 54.02c-.56 0-1.02-.44-1.03-1s.44-1.02 1-1.03l6.67-.22c2.14-.08 4.28-.16 6.68-.23a1.016 1.016 0 0 1 .07 2.03l-6.67.22-6.68.23h-.03zM29.69 80.46c-.56 0-1.01-.46-1.01-1.03 0-.38.21-.72.55-.89a22.97 22.97 0 0 0 10.52-11.06c.78-1.89 1.43-3.82 1.97-5.79.92-3.07 1.87-6.25 3.74-9 3.23-4.75 8.7-7.46 13.1-9.6.52-.22 1.11.02 1.34.53.21.48.02 1.04-.44 1.29-4.18 2.03-9.38 4.62-12.31 8.92-1.69 2.49-2.56 5.38-3.48 8.45-.56 2.04-1.26 4.05-2.09 6-2.33 5.2-6.36 9.44-11.42 12.04-.14.08-.3.13-.46.14z"/><path d="M39.86 70.19h-.11c-4.52-.64-9.11-.73-13.65-.26a1.02 1.02 0 0 1-.21-2.03c4.71-.48 9.46-.39 14.15.27.56.04.99.53.95 1.09-.04.56-.53.99-1.09.95h-.03zM52.29 81.11c-.55 0-1-.44-1.02-.98-.26-3.8-.17-7.61.26-11.4.1-.68.23-1.41.35-2.11.26-1.31.44-2.63.54-3.97.21-4.24-1.46-8.42-3.03-11.96-.23-.52.01-1.13.53-1.35.52-.23 1.13.01 1.35.53 1.66 3.78 3.39 8.19 3.2 12.88a31.96 31.96 0 0 1-.56 4.24c-.12.68-.24 1.36-.34 2.03-.42 3.66-.51 7.35-.26 11.02.02.56-.41 1.03-.97 1.05h-.04z"/><path d="M45.27 76.04c-.56 0-1.02-.45-1.02-1.01a1 1 0 0 1 .42-.82l7.11-5.19c.46-.32 1.1-.2 1.41.27.3.44.21 1.04-.21 1.37l-7.12 5.19c-.17.13-.37.2-.58.2zM46.29 54.02l-6.69-.23-6.69-.23a1.016 1.016 0 0 1 .05-2.03c2.39.07 4.54.15 6.68.23l6.67.22c.56 0 1.01.47 1 1.03 0 .56-.47 1.01-1.03 1z"/></svg>