<svg id="Layer_1" xmlns="http://www.w3.org/2000/svg" viewBox="0 0 256 256"><style>.st1{fill:#846f75}.st3{fill:#a58bc9}</style><path class="st3" d="M200.272 74.57a21.44 21.44 0 0 0-8.789 2.35c-5.281 2.493-11.66.424-14.425-4.787a2.5 2.5 0 1 0-4.416 2.344c2.473 4.66 6.935 7.592 11.79 8.322a21.596 21.596 0 0 0-2.736 4.609 2.5 2.5 0 0 0 1.297 3.289c1.242.54 2.745-.045 3.289-1.297a16.303 16.303 0 0 1 7.394-7.978 16.52 16.52 0 0 1 6.841-1.858 2.5 2.5 0 0 0 2.375-2.619 2.488 2.488 0 0 0-2.62-2.375zM86.32 117.27a2.5 2.5 0 0 1-2.362-1.681 21.326 21.326 0 0 1 4.63-21.679 21.386 21.386 0 0 1 13.1-6.58 2.5 2.5 0 0 1 .573 4.967 16.388 16.388 0 0 0-10.034 5.041 16.339 16.339 0 0 0-3.546 16.611 2.5 2.5 0 0 1-2.361 3.321zM124.793 51.251a2.495 2.495 0 0 1-1.853-.82 21.31 21.31 0 0 1-5.313-17.491 2.499 2.499 0 1 1 4.946.73 16.33 16.33 0 0 0 4.07 13.402 2.499 2.499 0 0 1-1.85 4.179zM172.743 115.277a2.499 2.499 0 0 1-2.42-3.135c.172-.658.305-1.328.395-1.991 1.213-8.949-5.079-17.214-14.026-18.427a2.501 2.501 0 0 1-2.142-2.813 2.503 2.503 0 0 1 2.813-2.142c11.679 1.583 19.893 12.374 18.31 24.052a21.446 21.446 0 0 1-.514 2.59 2.5 2.5 0 0 1-2.416 1.866zM182.759 48.982a2.5 2.5 0 0 0-3.489.568 16.369 16.369 0 0 1-14.075 6.802 16.385 16.385 0 0 1-9.555-3.665 15.901 15.901 0 0 0-3.655-10.106 2.502 2.502 0 0 0-3.86 3.18c1.871 2.271 2.746 5.135 2.463 8.064s-1.689 5.573-3.961 7.444a2.5 2.5 0 0 0-.34 3.519c.854 1.036 2.464 1.209 3.52.34a15.911 15.911 0 0 0 4.89-6.986 21.387 21.387 0 0 0 10.262 3.203c5.555.261 11.082-1.683 15.232-5.389a21.583 21.583 0 0 0 3.136-3.486 2.499 2.499 0 0 0-.568-3.488zM138.772 65.038a2.498 2.498 0 0 0-3.399.969 10.942 10.942 0 0 1-6.607 5.239 10.952 10.952 0 0 1-8.377-.967 2.5 2.5 0 1 0-2.431 4.369 16.18 16.18 0 0 0 9.437 1.921 16.356 16.356 0 0 1 3.574 6.778c.331 1.311 1.726 2.142 3.036 1.812a2.5 2.5 0 0 0 1.812-3.036 21.297 21.297 0 0 0-3.224-7.005 15.918 15.918 0 0 0 7.149-6.68 2.5 2.5 0 0 0-.97-3.4zM108.066 55.246c-3.586-.358-7.008.516-9.874 2.255-6.89-3.672-10.299-11.814-7.941-19.321a2.5 2.5 0 1 0-4.77-1.498c-2.883 9.178.835 19.081 8.7 24.242a15.919 15.919 0 0 0-3.647 8.665 2.501 2.501 0 0 0 2.239 2.737c1.343.135 2.6-.876 2.737-2.239.605-6.045 6.021-10.467 12.059-9.866a2.499 2.499 0 1 0 .497-4.975zM78.299 86.945a2.5 2.5 0 0 0-4.917.909 10.942 10.942 0 0 1-1.756 8.248c-.399.58-.849 1.111-1.338 1.596a16.24 16.24 0 0 1-7.017-9.234 16.264 16.264 0 0 1 1.333-12.461 16.382 16.382 0 0 1 6.905-6.722 16.345 16.345 0 0 1 1.31 3.65c.692 3.069 5.6 2.103 4.878-1.101a21.397 21.397 0 0 0-17.67-16.429 2.5 2.5 0 0 0-.74 4.946 16.38 16.38 0 0 1 7.451 3.145 16.315 16.315 0 0 1 1.877 1.681 21.386 21.386 0 0 0-8.399 8.437 21.24 21.24 0 0 0-1.74 16.267 21.209 21.209 0 0 0 7.073 10.581c-.326.092-.658.172-.995.235a2.5 2.5 0 0 0-2.004 2.913c.243 1.315 1.577 2.25 2.913 2.004a15.914 15.914 0 0 0 10.284-6.673 15.925 15.925 0 0 0 2.552-11.992z"/><path class="st1" d="M151.531 38.082a21.924 21.924 0 0 1 27.447 13.655 2.496 2.496 0 0 0 1.854 1.627c10.1 2.097 17.431 11.117 17.431 21.449 0 .663-.034 1.357-.101 2.063a2.501 2.501 0 0 0 1.585 2.565c6.656 2.584 10.958 8.866 10.958 16.003 0 8.415-6.262 15.71-14.566 16.969-.053.008-1.176.196-1.671.196H168.51a2.5 2.5 0 1 0 0 5h25.958c.825 0 1.665-.089 2.497-.264 10.689-1.66 18.74-11.062 18.74-21.901 0-8.595-4.83-16.229-12.452-19.925.007-.238.01-.473.01-.706 0-12.221-8.353-22.949-20.054-26.025-4.101-10.088-13.946-16.771-24.926-16.771-2.329 0-4.637.3-6.879.893a26.763 26.763 0 0 0-17.529-6.501 26.767 26.767 0 0 0-13.709 3.751 26.77 26.77 0 0 0-13.709-3.751 26.908 26.908 0 0 0-19.467 8.342 25.768 25.768 0 0 0-3.71-.271c-12.362 0-23.111 9.042-25.275 21.138l-.275.36a20.775 20.775 0 0 0-11.828 21.345 22.673 22.673 0 0 0-8.448 17.638c0 11.218 10.291 22.648 20.391 22.648h29.159a2.5 2.5 0 1 0 0-5H57.845c-7.479 0-15.391-9.072-15.391-17.648a17.67 17.67 0 0 1 7.582-14.492 2.5 2.5 0 0 0 1.023-2.542 15.904 15.904 0 0 1-.309-3.115c0-6.328 3.846-11.837 9.578-14.523 2.299-1.077 2.445-2.84 2.509-3.265 1.518-10.003 10.306-17.546 20.441-17.546 1.299 0 2.602.224 3.918.375 1.425.164 2.467-.606 2.767-.949a21.915 21.915 0 0 1 16.492-7.497c4.413 0 8.667 1.307 12.304 3.78a2.5 2.5 0 0 0 2.812 0 21.783 21.783 0 0 1 12.303-3.78 21.797 21.797 0 0 1 15.156 6.099 2.5 2.5 0 0 0 2.501.576zM101.764 160.415H89.921v-12.787a2.5 2.5 0 1 0-5 0v12.787H73.216c-6.893 0-12.5 5.607-12.5 12.5v12.787h-4.249c-6.893 0-12.5 5.607-12.5 12.5v15.287a2.5 2.5 0 1 0 5 0v-15.287c0-4.136 3.364-7.5 7.5-7.5h13.498c4.136 0 7.5 3.364 7.5 7.5v15.287a2.5 2.5 0 1 0 5 0v-15.287c0-6.893-5.607-12.5-12.5-12.5h-4.249v-12.787c0-4.136 3.364-7.5 7.5-7.5h28.548c4.136 0 7.5 3.364 7.5 7.5v15.287a2.5 2.5 0 1 0 5 0v-15.287c0-6.893-5.607-12.5-12.5-12.5zM199.533 185.702h-4.249v-12.787c0-6.893-5.607-12.5-12.5-12.5H171.01v-12.787a2.5 2.5 0 1 0-5 0v12.787h-11.773c-6.893 0-12.5 5.607-12.5 12.5v15.287a2.5 2.5 0 1 0 5 0v-15.287c0-4.136 3.364-7.5 7.5-7.5h28.548c4.136 0 7.5 3.364 7.5 7.5v12.787h-4.249c-6.893 0-12.5 5.607-12.5 12.5v15.287a2.5 2.5 0 1 0 5 0v-15.287c0-4.136 3.364-7.5 7.5-7.5h13.498c4.136 0 7.5 3.364 7.5 7.5v15.287a2.5 2.5 0 1 0 5 0v-15.287c-.001-6.893-5.608-12.5-12.501-12.5z"/><path class="st3" d="M144.236 204.305c-5.129 0-9.302-4.172-9.302-9.301s4.173-9.302 9.302-9.302 9.301 4.173 9.301 9.302-4.172 9.301-9.301 9.301zm0-13.603a4.307 4.307 0 0 0-4.302 4.302 4.306 4.306 0 0 0 4.302 4.301 4.307 4.307 0 0 0 4.301-4.301 4.306 4.306 0 0 0-4.301-4.302zM111.764 204.305c-5.129 0-9.302-4.172-9.302-9.301s4.173-9.302 9.302-9.302 9.301 4.173 9.301 9.302-4.172 9.301-9.301 9.301zm0-13.603a4.307 4.307 0 0 0-4.302 4.302 4.306 4.306 0 0 0 4.302 4.301 4.306 4.306 0 0 0 4.301-4.301 4.306 4.306 0 0 0-4.301-4.302zM176.035 229.591c-5.129 0-9.302-4.172-9.302-9.301s4.173-9.302 9.302-9.302 9.302 4.173 9.302 9.302-4.173 9.301-9.302 9.301zm0-13.603a4.307 4.307 0 0 0-4.302 4.302c0 2.372 1.93 4.301 4.302 4.301s4.302-1.93 4.302-4.301a4.307 4.307 0 0 0-4.302-4.302zM209.533 229.591c-5.129 0-9.302-4.172-9.302-9.301s4.173-9.302 9.302-9.302 9.302 4.173 9.302 9.302-4.173 9.301-9.302 9.301zm0-13.603a4.307 4.307 0 0 0-4.302 4.302c0 2.372 1.93 4.301 4.302 4.301s4.302-1.93 4.302-4.301a4.307 4.307 0 0 0-4.302-4.302zM46.467 229.591c-5.129 0-9.301-4.172-9.301-9.301s4.172-9.302 9.301-9.302 9.301 4.173 9.301 9.302-4.172 9.301-9.301 9.301zm0-13.603a4.306 4.306 0 0 0-4.301 4.302c0 2.372 1.93 4.301 4.301 4.301s4.301-1.93 4.301-4.301a4.307 4.307 0 0 0-4.301-4.302zM79.965 229.591c-5.129 0-9.301-4.172-9.301-9.301s4.172-9.302 9.301-9.302 9.302 4.173 9.302 9.302-4.173 9.301-9.302 9.301zm0-13.603a4.306 4.306 0 0 0-4.301 4.302 4.306 4.306 0 0 0 4.301 4.301 4.307 4.307 0 0 0 4.302-4.301 4.307 4.307 0 0 0-4.302-4.302zM131.479 161.054h-6.958a5.568 5.568 0 0 1-5.39-4.172l-1.584-6.146-5.463 3.225a5.567 5.567 0 0 1-6.764-.86l-4.92-4.92a5.569 5.569 0 0 1-.861-6.762l3.226-5.465-6.143-1.583a5.57 5.57 0 0 1-4.175-5.391v-6.958a5.569 5.569 0 0 1 4.173-5.391l6.146-1.583-3.224-5.463a5.568 5.568 0 0 1 .86-6.764l4.919-4.919a5.566 5.566 0 0 1 6.762-.861l5.465 3.226 1.583-6.143a5.569 5.569 0 0 1 5.391-4.175h6.958a5.568 5.568 0 0 1 5.391 4.172l1.584 6.146 5.463-3.225a5.568 5.568 0 0 1 6.765.859l4.92 4.919a5.57 5.57 0 0 1 .861 6.762l-3.226 5.466 6.143 1.583.003.001a5.569 5.569 0 0 1 4.172 5.391v6.958a5.568 5.568 0 0 1-4.172 5.39l-6.146 1.584 3.225 5.462a5.573 5.573 0 0 1-.859 6.765l-4.921 4.92a5.57 5.57 0 0 1-6.762.862l-5.466-3.227-1.583 6.143a5.573 5.573 0 0 1-5.393 4.174zm-12.34-16.661a2.497 2.497 0 0 1 2.421 1.876l2.412 9.362a.568.568 0 0 0 .549.423h6.958a.57.57 0 0 0 .551-.426l2.411-9.358a2.5 2.5 0 0 1 3.692-1.529l8.325 4.914a.568.568 0 0 0 .688-.09l4.92-4.919a.57.57 0 0 0 .087-.692l-4.912-8.321a2.501 2.501 0 0 1 1.53-3.692l9.361-2.412a.568.568 0 0 0 .423-.549v-6.958a.57.57 0 0 0-.426-.551l-9.358-2.411a2.5 2.5 0 0 1-1.53-3.691l4.914-8.326a.567.567 0 0 0-.09-.688l-4.919-4.918a.567.567 0 0 0-.69-.088l-8.323 4.913a2.497 2.497 0 0 1-3.692-1.529l-2.412-9.362a.568.568 0 0 0-.55-.422h-6.958a.568.568 0 0 0-.55.426l-2.411 9.358a2.5 2.5 0 0 1-3.691 1.529l-8.326-4.914a.57.57 0 0 0-.688.089l-4.919 4.919a.569.569 0 0 0-.088.69l4.912 8.324a2.499 2.499 0 0 1-1.529 3.691l-9.361 2.412a.568.568 0 0 0-.423.55v6.958c0 .259.175.485.426.55l9.359 2.412a2.5 2.5 0 0 1 1.529 3.691l-4.914 8.325a.568.568 0 0 0 .089.688l4.92 4.92a.567.567 0 0 0 .69.087l8.323-4.912a2.477 2.477 0 0 1 1.27-.349zm8.861-5.141c-7.583 0-13.752-6.169-13.752-13.752 0-7.583 6.169-13.753 13.752-13.753s13.753 6.169 13.753 13.753c0 7.583-6.17 13.752-13.753 13.752zm0-22.505c-4.826 0-8.752 3.927-8.752 8.753 0 4.826 3.926 8.752 8.752 8.752s8.753-3.926 8.753-8.752c0-4.826-3.927-8.753-8.753-8.753z"/></svg>